<?xml version="1.0" standalone="no"?>
<!DOCTYPE svg PUBLIC "-//W3C//DTD SVG 20010904//EN"
 "http://www.w3.org/TR/2001/REC-SVG-20010904/DTD/svg10.dtd">
<svg version="1.0" xmlns="http://www.w3.org/2000/svg"
 width="260.000000pt" height="260.000000pt" viewBox="0 0 260.000000 260.000000"
 preserveAspectRatio="xMidYMid meet">
<metadata>
Created by potrace 1.14, written by Peter Selinger 2001-2017
</metadata>
<g transform="translate(0.000000,260.000000) scale(0.100000,-0.100000)"
fill="#000000" stroke="none">
<path d="M1262 2403 c-49 -26 -47 -19 -56 -192 -3 -57 -10 -109 -16 -116 -5
-6 -11 -24 -12 -39 -1 -14 -6 -27 -10 -27 -4 -1 -12 -3 -18 -4 -5 -1 -17 -3
-26 -4 -8 0 -13 -5 -9 -10 3 -5 2 -12 -3 -15 -4 -2 -9 -55 -10 -117 -2 -62 -6
-118 -11 -124 -6 -9 -7 -31 -2 -98 0 -10 12 -22 26 -27 18 -7 23 -14 18 -27
-10 -30 -22 -41 -78 -72 -60 -34 -92 -64 -108 -101 -13 -32 -18 -1223 -4
-1262 5 -16 14 -29 20 -30 7 0 160 -2 341 -3 295 -1 330 0 349 16 21 16 21 20
22 625 0 440 -3 618 -12 642 -16 46 -53 84 -118 118 -39 20 -57 36 -65 57 -13
38 -13 37 10 37 10 0 23 8 27 18 10 19 9 89 0 112 -3 8 -8 68 -11 133 -2 66
-6 121 -8 123 -4 3 -40 11 -60 13 -5 1 -8 10 -8 22 0 11 -4 29 -10 39 -5 10
-12 65 -15 122 -7 145 -12 165 -42 185 -33 22 -66 24 -101 6z"/>
</g>
</svg>
